<mxfile host="Electron" agent="Mozilla/5.0 (Macintosh; Intel Mac OS X 10_15_7) AppleWebKit/537.36 (KHTML, like Gecko) draw.io/24.7.17 Chrome/128.0.6613.36 Electron/32.0.1 Safari/537.36" version="24.7.17" pages="4">
  <diagram id="PDf9k8w7k3fXTnSEPTR6" name="cache">
    <mxGraphModel dx="1010" dy="732" grid="1" gridSize="10" guides="1" tooltips="1" connect="1" arrows="1" fold="1" page="1" pageScale="1" pageWidth="827" pageHeight="1169" math="0" shadow="0">
      <root>
        <mxCell id="0" />
        <mxCell id="1" parent="0" />
        <mxCell id="kqhExnSUyRJDQS8LttIm-1" value="" style="rounded=1;whiteSpace=wrap;html=1;dashed=1;" parent="1" vertex="1">
          <mxGeometry x="124" y="545" width="580" height="380" as="geometry" />
        </mxCell>
        <mxCell id="kqhExnSUyRJDQS8LttIm-2" value="" style="rounded=1;whiteSpace=wrap;html=1;" parent="1" vertex="1">
          <mxGeometry x="154" y="575" width="240" height="320" as="geometry" />
        </mxCell>
        <mxCell id="kqhExnSUyRJDQS8LttIm-3" value="MongoDB" style="shape=cylinder3;whiteSpace=wrap;html=1;boundedLbl=1;backgroundOutline=1;size=15;" parent="1" vertex="1">
          <mxGeometry x="244" y="615" width="60" height="80" as="geometry" />
        </mxCell>
        <mxCell id="kqhExnSUyRJDQS8LttIm-4" value="pymongo-api" style="rounded=1;whiteSpace=wrap;html=1;" parent="1" vertex="1">
          <mxGeometry x="354" y="255" width="120" height="40" as="geometry" />
        </mxCell>
        <mxCell id="kqhExnSUyRJDQS8LttIm-5" value="configSrv" style="rounded=1;whiteSpace=wrap;html=1;" parent="1" vertex="1">
          <mxGeometry x="534" y="445" width="120" height="40" as="geometry" />
        </mxCell>
        <mxCell id="kqhExnSUyRJDQS8LttIm-6" value="router" style="rounded=1;whiteSpace=wrap;html=1;" parent="1" vertex="1">
          <mxGeometry x="354" y="445" width="120" height="40" as="geometry" />
        </mxCell>
        <mxCell id="kqhExnSUyRJDQS8LttIm-7" value="" style="endArrow=classic;html=1;rounded=0;exitX=0.5;exitY=1;exitDx=0;exitDy=0;entryX=0.5;entryY=0;entryDx=0;entryDy=0;" parent="1" source="kqhExnSUyRJDQS8LttIm-4" target="kqhExnSUyRJDQS8LttIm-6" edge="1">
          <mxGeometry width="50" height="50" relative="1" as="geometry">
            <mxPoint x="494" y="310" as="sourcePoint" />
            <mxPoint x="364" y="400" as="targetPoint" />
          </mxGeometry>
        </mxCell>
        <mxCell id="kqhExnSUyRJDQS8LttIm-8" value="" style="endArrow=classic;html=1;rounded=0;exitX=0.5;exitY=1;exitDx=0;exitDy=0;entryX=0.5;entryY=0;entryDx=0;entryDy=0;" parent="1" source="kqhExnSUyRJDQS8LttIm-6" target="kqhExnSUyRJDQS8LttIm-2" edge="1">
          <mxGeometry width="50" height="50" relative="1" as="geometry">
            <mxPoint x="334" y="415" as="sourcePoint" />
            <mxPoint x="404" y="475" as="targetPoint" />
          </mxGeometry>
        </mxCell>
        <mxCell id="kqhExnSUyRJDQS8LttIm-9" value="" style="endArrow=classic;html=1;rounded=0;exitX=0.5;exitY=1;exitDx=0;exitDy=0;entryX=0.5;entryY=0;entryDx=0;entryDy=0;" parent="1" source="kqhExnSUyRJDQS8LttIm-6" target="kqhExnSUyRJDQS8LttIm-22" edge="1">
          <mxGeometry width="50" height="50" relative="1" as="geometry">
            <mxPoint x="533.5" y="435" as="sourcePoint" />
            <mxPoint x="484" y="475" as="targetPoint" />
          </mxGeometry>
        </mxCell>
        <mxCell id="kqhExnSUyRJDQS8LttIm-10" value="" style="endArrow=classic;html=1;rounded=0;exitX=1;exitY=0.5;exitDx=0;exitDy=0;entryX=0;entryY=0.5;entryDx=0;entryDy=0;" parent="1" source="kqhExnSUyRJDQS8LttIm-6" target="kqhExnSUyRJDQS8LttIm-5" edge="1">
          <mxGeometry width="50" height="50" relative="1" as="geometry">
            <mxPoint x="624" y="455" as="sourcePoint" />
            <mxPoint x="674" y="405" as="targetPoint" />
          </mxGeometry>
        </mxCell>
        <mxCell id="kqhExnSUyRJDQS8LttIm-11" value="" style="endArrow=classic;html=1;rounded=0;entryX=0.5;entryY=1;entryDx=0;entryDy=0;edgeStyle=orthogonalEdgeStyle;exitX=0.811;exitY=0.001;exitDx=0;exitDy=0;exitPerimeter=0;" parent="1" source="kqhExnSUyRJDQS8LttIm-1" target="kqhExnSUyRJDQS8LttIm-5" edge="1">
          <mxGeometry width="50" height="50" relative="1" as="geometry">
            <mxPoint x="594" y="515" as="sourcePoint" />
            <mxPoint x="764" y="485" as="targetPoint" />
          </mxGeometry>
        </mxCell>
        <mxCell id="kqhExnSUyRJDQS8LttIm-12" value="" style="endArrow=none;dashed=1;html=1;dashPattern=1 3;strokeWidth=2;rounded=0;entryX=0;entryY=0.5;entryDx=0;entryDy=0;exitX=1;exitY=0.5;exitDx=0;exitDy=0;" parent="1" source="kqhExnSUyRJDQS8LttIm-2" target="kqhExnSUyRJDQS8LttIm-22" edge="1">
          <mxGeometry width="50" height="50" relative="1" as="geometry">
            <mxPoint x="394" y="735" as="sourcePoint" />
            <mxPoint x="424" y="735" as="targetPoint" />
          </mxGeometry>
        </mxCell>
        <mxCell id="kqhExnSUyRJDQS8LttIm-13" value="shard1-1" style="text;html=1;align=center;verticalAlign=middle;whiteSpace=wrap;rounded=0;" parent="1" vertex="1">
          <mxGeometry x="244" y="895" width="60" height="30" as="geometry" />
        </mxCell>
        <mxCell id="kqhExnSUyRJDQS8LttIm-14" value="shard1-2" style="text;html=1;align=center;verticalAlign=middle;whiteSpace=wrap;rounded=0;" parent="1" vertex="1">
          <mxGeometry x="519" y="895" width="60" height="30" as="geometry" />
        </mxCell>
        <mxCell id="kqhExnSUyRJDQS8LttIm-15" value="MongoDB" style="shape=cylinder3;whiteSpace=wrap;html=1;boundedLbl=1;backgroundOutline=1;size=15;" parent="1" vertex="1">
          <mxGeometry x="184" y="765" width="60" height="80" as="geometry" />
        </mxCell>
        <mxCell id="kqhExnSUyRJDQS8LttIm-16" value="MongoDB" style="shape=cylinder3;whiteSpace=wrap;html=1;boundedLbl=1;backgroundOutline=1;size=15;" parent="1" vertex="1">
          <mxGeometry x="304" y="765" width="60" height="80" as="geometry" />
        </mxCell>
        <mxCell id="kqhExnSUyRJDQS8LttIm-17" value="master" style="text;html=1;align=center;verticalAlign=middle;whiteSpace=wrap;rounded=0;" parent="1" vertex="1">
          <mxGeometry x="244" y="585" width="60" height="30" as="geometry" />
        </mxCell>
        <mxCell id="kqhExnSUyRJDQS8LttIm-18" value="slave" style="text;html=1;align=center;verticalAlign=middle;whiteSpace=wrap;rounded=0;" parent="1" vertex="1">
          <mxGeometry x="184" y="845" width="60" height="30" as="geometry" />
        </mxCell>
        <mxCell id="kqhExnSUyRJDQS8LttIm-19" value="slave" style="text;html=1;align=center;verticalAlign=middle;whiteSpace=wrap;rounded=0;" parent="1" vertex="1">
          <mxGeometry x="304" y="845" width="60" height="30" as="geometry" />
        </mxCell>
        <mxCell id="kqhExnSUyRJDQS8LttIm-20" value="" style="endArrow=classic;html=1;rounded=0;exitX=0.5;exitY=1;exitDx=0;exitDy=0;exitPerimeter=0;entryX=0.5;entryY=0;entryDx=0;entryDy=0;entryPerimeter=0;" parent="1" source="kqhExnSUyRJDQS8LttIm-3" target="kqhExnSUyRJDQS8LttIm-15" edge="1">
          <mxGeometry width="50" height="50" relative="1" as="geometry">
            <mxPoint x="264" y="775" as="sourcePoint" />
            <mxPoint x="314" y="725" as="targetPoint" />
          </mxGeometry>
        </mxCell>
        <mxCell id="kqhExnSUyRJDQS8LttIm-21" value="" style="endArrow=classic;html=1;rounded=0;exitX=0.5;exitY=1;exitDx=0;exitDy=0;exitPerimeter=0;entryX=0.5;entryY=0;entryDx=0;entryDy=0;entryPerimeter=0;" parent="1" source="kqhExnSUyRJDQS8LttIm-3" target="kqhExnSUyRJDQS8LttIm-16" edge="1">
          <mxGeometry width="50" height="50" relative="1" as="geometry">
            <mxPoint x="314" y="715" as="sourcePoint" />
            <mxPoint x="254" y="795" as="targetPoint" />
          </mxGeometry>
        </mxCell>
        <mxCell id="kqhExnSUyRJDQS8LttIm-22" value="" style="rounded=1;whiteSpace=wrap;html=1;" parent="1" vertex="1">
          <mxGeometry x="434" y="575" width="240" height="320" as="geometry" />
        </mxCell>
        <mxCell id="kqhExnSUyRJDQS8LttIm-23" value="MongoDB" style="shape=cylinder3;whiteSpace=wrap;html=1;boundedLbl=1;backgroundOutline=1;size=15;" parent="1" vertex="1">
          <mxGeometry x="524" y="615" width="60" height="80" as="geometry" />
        </mxCell>
        <mxCell id="kqhExnSUyRJDQS8LttIm-24" value="MongoDB" style="shape=cylinder3;whiteSpace=wrap;html=1;boundedLbl=1;backgroundOutline=1;size=15;" parent="1" vertex="1">
          <mxGeometry x="459" y="765" width="60" height="80" as="geometry" />
        </mxCell>
        <mxCell id="kqhExnSUyRJDQS8LttIm-25" value="MongoDB" style="shape=cylinder3;whiteSpace=wrap;html=1;boundedLbl=1;backgroundOutline=1;size=15;" parent="1" vertex="1">
          <mxGeometry x="594" y="765" width="60" height="80" as="geometry" />
        </mxCell>
        <mxCell id="kqhExnSUyRJDQS8LttIm-26" value="master" style="text;html=1;align=center;verticalAlign=middle;whiteSpace=wrap;rounded=0;" parent="1" vertex="1">
          <mxGeometry x="524" y="585" width="60" height="30" as="geometry" />
        </mxCell>
        <mxCell id="kqhExnSUyRJDQS8LttIm-27" value="slave" style="text;html=1;align=center;verticalAlign=middle;whiteSpace=wrap;rounded=0;" parent="1" vertex="1">
          <mxGeometry x="459" y="845" width="60" height="30" as="geometry" />
        </mxCell>
        <mxCell id="kqhExnSUyRJDQS8LttIm-28" value="slave" style="text;html=1;align=center;verticalAlign=middle;whiteSpace=wrap;rounded=0;" parent="1" vertex="1">
          <mxGeometry x="594" y="845" width="60" height="30" as="geometry" />
        </mxCell>
        <mxCell id="kqhExnSUyRJDQS8LttIm-29" value="" style="endArrow=classic;html=1;rounded=0;exitX=0.5;exitY=1;exitDx=0;exitDy=0;exitPerimeter=0;entryX=0.5;entryY=0;entryDx=0;entryDy=0;entryPerimeter=0;" parent="1" source="kqhExnSUyRJDQS8LttIm-23" target="kqhExnSUyRJDQS8LttIm-24" edge="1">
          <mxGeometry width="50" height="50" relative="1" as="geometry">
            <mxPoint x="549" y="765" as="sourcePoint" />
            <mxPoint x="599" y="715" as="targetPoint" />
          </mxGeometry>
        </mxCell>
        <mxCell id="kqhExnSUyRJDQS8LttIm-30" value="" style="endArrow=classic;html=1;rounded=0;exitX=0.5;exitY=1;exitDx=0;exitDy=0;exitPerimeter=0;entryX=0.5;entryY=0;entryDx=0;entryDy=0;entryPerimeter=0;" parent="1" source="kqhExnSUyRJDQS8LttIm-23" target="kqhExnSUyRJDQS8LttIm-25" edge="1">
          <mxGeometry width="50" height="50" relative="1" as="geometry">
            <mxPoint x="599" y="705" as="sourcePoint" />
            <mxPoint x="539" y="785" as="targetPoint" />
          </mxGeometry>
        </mxCell>
        <mxCell id="kqhExnSUyRJDQS8LttIm-31" value="replica" style="text;html=1;align=center;verticalAlign=middle;whiteSpace=wrap;rounded=0;" parent="1" vertex="1">
          <mxGeometry x="164" y="595" width="60" height="30" as="geometry" />
        </mxCell>
        <mxCell id="kqhExnSUyRJDQS8LttIm-32" value="replica" style="text;html=1;align=center;verticalAlign=middle;whiteSpace=wrap;rounded=0;" parent="1" vertex="1">
          <mxGeometry x="454" y="595" width="60" height="30" as="geometry" />
        </mxCell>
        <mxCell id="kqhExnSUyRJDQS8LttIm-33" value="redis" style="rounded=1;whiteSpace=wrap;html=1;" parent="1" vertex="1">
          <mxGeometry x="514" y="335" width="120" height="40" as="geometry" />
        </mxCell>
        <mxCell id="kqhExnSUyRJDQS8LttIm-36" value="" style="endArrow=classic;html=1;rounded=0;entryX=0.5;entryY=0;entryDx=0;entryDy=0;edgeStyle=orthogonalEdgeStyle;exitX=1;exitY=0.5;exitDx=0;exitDy=0;" parent="1" source="kqhExnSUyRJDQS8LttIm-4" target="kqhExnSUyRJDQS8LttIm-33" edge="1">
          <mxGeometry width="50" height="50" relative="1" as="geometry">
            <mxPoint x="704" y="425" as="sourcePoint" />
            <mxPoint x="704" y="365" as="targetPoint" />
          </mxGeometry>
        </mxCell>
        <mxCell id="kqhExnSUyRJDQS8LttIm-37" value="Запрос или обновление данных из/в кэше" style="text;html=1;align=center;verticalAlign=middle;whiteSpace=wrap;rounded=0;" parent="1" vertex="1">
          <mxGeometry x="474" y="245" width="150" height="30" as="geometry" />
        </mxCell>
      </root>
    </mxGraphModel>
  </diagram>
  <diagram id="7528Rn3QirwtUqB7XDrQ" name="replica">
    <mxGraphModel dx="2813" dy="1207" grid="1" gridSize="10" guides="1" tooltips="1" connect="1" arrows="1" fold="1" page="1" pageScale="1" pageWidth="827" pageHeight="1169" math="0" shadow="0">
      <root>
        <mxCell id="0" />
        <mxCell id="1" parent="0" />
        <mxCell id="5W4gGsyxZHEPRXtkc3L3-33" value="" style="rounded=1;whiteSpace=wrap;html=1;dashed=1;" vertex="1" parent="1">
          <mxGeometry x="124" y="550" width="580" height="370" as="geometry" />
        </mxCell>
        <mxCell id="iUdPSWJybZnCD5FLrFZx-14" value="" style="rounded=1;whiteSpace=wrap;html=1;" vertex="1" parent="1">
          <mxGeometry x="154" y="570" width="240" height="320" as="geometry" />
        </mxCell>
        <mxCell id="5W4gGsyxZHEPRXtkc3L3-1" value="MongoDB" style="shape=cylinder3;whiteSpace=wrap;html=1;boundedLbl=1;backgroundOutline=1;size=15;" vertex="1" parent="1">
          <mxGeometry x="244" y="610" width="60" height="80" as="geometry" />
        </mxCell>
        <mxCell id="5W4gGsyxZHEPRXtkc3L3-2" value="pymongo-api" style="rounded=1;whiteSpace=wrap;html=1;" vertex="1" parent="1">
          <mxGeometry x="354" y="250" width="120" height="40" as="geometry" />
        </mxCell>
        <mxCell id="5W4gGsyxZHEPRXtkc3L3-3" value="configSrv" style="rounded=1;whiteSpace=wrap;html=1;" vertex="1" parent="1">
          <mxGeometry x="534" y="370" width="120" height="40" as="geometry" />
        </mxCell>
        <mxCell id="5W4gGsyxZHEPRXtkc3L3-4" value="router" style="rounded=1;whiteSpace=wrap;html=1;" vertex="1" parent="1">
          <mxGeometry x="354" y="370" width="120" height="40" as="geometry" />
        </mxCell>
        <mxCell id="5W4gGsyxZHEPRXtkc3L3-5" value="" style="endArrow=classic;html=1;rounded=0;exitX=0.5;exitY=1;exitDx=0;exitDy=0;entryX=0.5;entryY=0;entryDx=0;entryDy=0;" edge="1" parent="1" source="5W4gGsyxZHEPRXtkc3L3-2" target="5W4gGsyxZHEPRXtkc3L3-4">
          <mxGeometry width="50" height="50" relative="1" as="geometry">
            <mxPoint x="494" y="305" as="sourcePoint" />
            <mxPoint x="364" y="395" as="targetPoint" />
          </mxGeometry>
        </mxCell>
        <mxCell id="5W4gGsyxZHEPRXtkc3L3-6" value="" style="endArrow=classic;html=1;rounded=0;exitX=0.5;exitY=1;exitDx=0;exitDy=0;entryX=0.5;entryY=0;entryDx=0;entryDy=0;" edge="1" parent="1" source="5W4gGsyxZHEPRXtkc3L3-4" target="iUdPSWJybZnCD5FLrFZx-14">
          <mxGeometry width="50" height="50" relative="1" as="geometry">
            <mxPoint x="334" y="410" as="sourcePoint" />
            <mxPoint x="404" y="470" as="targetPoint" />
          </mxGeometry>
        </mxCell>
        <mxCell id="5W4gGsyxZHEPRXtkc3L3-7" value="" style="endArrow=classic;html=1;rounded=0;exitX=0.5;exitY=1;exitDx=0;exitDy=0;entryX=0.5;entryY=0;entryDx=0;entryDy=0;" edge="1" parent="1" source="5W4gGsyxZHEPRXtkc3L3-4" target="5W4gGsyxZHEPRXtkc3L3-22">
          <mxGeometry width="50" height="50" relative="1" as="geometry">
            <mxPoint x="533.5" y="430" as="sourcePoint" />
            <mxPoint x="484" y="470" as="targetPoint" />
          </mxGeometry>
        </mxCell>
        <mxCell id="5W4gGsyxZHEPRXtkc3L3-8" value="" style="endArrow=classic;html=1;rounded=0;exitX=1;exitY=0.5;exitDx=0;exitDy=0;entryX=0;entryY=0.5;entryDx=0;entryDy=0;" edge="1" parent="1" source="5W4gGsyxZHEPRXtkc3L3-4" target="5W4gGsyxZHEPRXtkc3L3-3">
          <mxGeometry width="50" height="50" relative="1" as="geometry">
            <mxPoint x="624" y="450" as="sourcePoint" />
            <mxPoint x="674" y="400" as="targetPoint" />
          </mxGeometry>
        </mxCell>
        <mxCell id="5W4gGsyxZHEPRXtkc3L3-9" value="" style="endArrow=classic;html=1;rounded=0;entryX=0.5;entryY=1;entryDx=0;entryDy=0;edgeStyle=orthogonalEdgeStyle;exitX=0.811;exitY=0.001;exitDx=0;exitDy=0;exitPerimeter=0;" edge="1" parent="1" source="5W4gGsyxZHEPRXtkc3L3-33" target="5W4gGsyxZHEPRXtkc3L3-3">
          <mxGeometry width="50" height="50" relative="1" as="geometry">
            <mxPoint x="594" y="510" as="sourcePoint" />
            <mxPoint x="764" y="480" as="targetPoint" />
          </mxGeometry>
        </mxCell>
        <mxCell id="5W4gGsyxZHEPRXtkc3L3-10" value="" style="endArrow=none;dashed=1;html=1;dashPattern=1 3;strokeWidth=2;rounded=0;entryX=0;entryY=0.5;entryDx=0;entryDy=0;exitX=1;exitY=0.5;exitDx=0;exitDy=0;" edge="1" parent="1" source="iUdPSWJybZnCD5FLrFZx-14" target="5W4gGsyxZHEPRXtkc3L3-22">
          <mxGeometry width="50" height="50" relative="1" as="geometry">
            <mxPoint x="394" y="730" as="sourcePoint" />
            <mxPoint x="424" y="730" as="targetPoint" />
          </mxGeometry>
        </mxCell>
        <mxCell id="5W4gGsyxZHEPRXtkc3L3-12" value="shard1-1" style="text;html=1;align=center;verticalAlign=middle;whiteSpace=wrap;rounded=0;" vertex="1" parent="1">
          <mxGeometry x="244" y="890" width="60" height="30" as="geometry" />
        </mxCell>
        <mxCell id="5W4gGsyxZHEPRXtkc3L3-13" value="shard1-2" style="text;html=1;align=center;verticalAlign=middle;whiteSpace=wrap;rounded=0;" vertex="1" parent="1">
          <mxGeometry x="519" y="890" width="60" height="30" as="geometry" />
        </mxCell>
        <mxCell id="5W4gGsyxZHEPRXtkc3L3-15" value="MongoDB" style="shape=cylinder3;whiteSpace=wrap;html=1;boundedLbl=1;backgroundOutline=1;size=15;" vertex="1" parent="1">
          <mxGeometry x="184" y="760" width="60" height="80" as="geometry" />
        </mxCell>
        <mxCell id="5W4gGsyxZHEPRXtkc3L3-16" value="MongoDB" style="shape=cylinder3;whiteSpace=wrap;html=1;boundedLbl=1;backgroundOutline=1;size=15;" vertex="1" parent="1">
          <mxGeometry x="304" y="760" width="60" height="80" as="geometry" />
        </mxCell>
        <mxCell id="5W4gGsyxZHEPRXtkc3L3-17" value="master" style="text;html=1;align=center;verticalAlign=middle;whiteSpace=wrap;rounded=0;" vertex="1" parent="1">
          <mxGeometry x="244" y="580" width="60" height="30" as="geometry" />
        </mxCell>
        <mxCell id="5W4gGsyxZHEPRXtkc3L3-18" value="slave" style="text;html=1;align=center;verticalAlign=middle;whiteSpace=wrap;rounded=0;" vertex="1" parent="1">
          <mxGeometry x="184" y="840" width="60" height="30" as="geometry" />
        </mxCell>
        <mxCell id="5W4gGsyxZHEPRXtkc3L3-19" value="slave" style="text;html=1;align=center;verticalAlign=middle;whiteSpace=wrap;rounded=0;" vertex="1" parent="1">
          <mxGeometry x="304" y="840" width="60" height="30" as="geometry" />
        </mxCell>
        <mxCell id="5W4gGsyxZHEPRXtkc3L3-20" value="" style="endArrow=classic;html=1;rounded=0;exitX=0.5;exitY=1;exitDx=0;exitDy=0;exitPerimeter=0;entryX=0.5;entryY=0;entryDx=0;entryDy=0;entryPerimeter=0;" edge="1" parent="1" source="5W4gGsyxZHEPRXtkc3L3-1" target="5W4gGsyxZHEPRXtkc3L3-15">
          <mxGeometry width="50" height="50" relative="1" as="geometry">
            <mxPoint x="264" y="770" as="sourcePoint" />
            <mxPoint x="314" y="720" as="targetPoint" />
          </mxGeometry>
        </mxCell>
        <mxCell id="5W4gGsyxZHEPRXtkc3L3-21" value="" style="endArrow=classic;html=1;rounded=0;exitX=0.5;exitY=1;exitDx=0;exitDy=0;exitPerimeter=0;entryX=0.5;entryY=0;entryDx=0;entryDy=0;entryPerimeter=0;" edge="1" parent="1" source="5W4gGsyxZHEPRXtkc3L3-1" target="5W4gGsyxZHEPRXtkc3L3-16">
          <mxGeometry width="50" height="50" relative="1" as="geometry">
            <mxPoint x="314" y="710" as="sourcePoint" />
            <mxPoint x="254" y="790" as="targetPoint" />
          </mxGeometry>
        </mxCell>
        <mxCell id="5W4gGsyxZHEPRXtkc3L3-22" value="" style="rounded=1;whiteSpace=wrap;html=1;" vertex="1" parent="1">
          <mxGeometry x="434" y="570" width="240" height="320" as="geometry" />
        </mxCell>
        <mxCell id="5W4gGsyxZHEPRXtkc3L3-23" value="MongoDB" style="shape=cylinder3;whiteSpace=wrap;html=1;boundedLbl=1;backgroundOutline=1;size=15;" vertex="1" parent="1">
          <mxGeometry x="524" y="610" width="60" height="80" as="geometry" />
        </mxCell>
        <mxCell id="5W4gGsyxZHEPRXtkc3L3-24" value="MongoDB" style="shape=cylinder3;whiteSpace=wrap;html=1;boundedLbl=1;backgroundOutline=1;size=15;" vertex="1" parent="1">
          <mxGeometry x="459" y="760" width="60" height="80" as="geometry" />
        </mxCell>
        <mxCell id="5W4gGsyxZHEPRXtkc3L3-25" value="MongoDB" style="shape=cylinder3;whiteSpace=wrap;html=1;boundedLbl=1;backgroundOutline=1;size=15;" vertex="1" parent="1">
          <mxGeometry x="594" y="760" width="60" height="80" as="geometry" />
        </mxCell>
        <mxCell id="5W4gGsyxZHEPRXtkc3L3-26" value="master" style="text;html=1;align=center;verticalAlign=middle;whiteSpace=wrap;rounded=0;" vertex="1" parent="1">
          <mxGeometry x="524" y="580" width="60" height="30" as="geometry" />
        </mxCell>
        <mxCell id="5W4gGsyxZHEPRXtkc3L3-27" value="slave" style="text;html=1;align=center;verticalAlign=middle;whiteSpace=wrap;rounded=0;" vertex="1" parent="1">
          <mxGeometry x="459" y="840" width="60" height="30" as="geometry" />
        </mxCell>
        <mxCell id="5W4gGsyxZHEPRXtkc3L3-28" value="slave" style="text;html=1;align=center;verticalAlign=middle;whiteSpace=wrap;rounded=0;" vertex="1" parent="1">
          <mxGeometry x="594" y="840" width="60" height="30" as="geometry" />
        </mxCell>
        <mxCell id="5W4gGsyxZHEPRXtkc3L3-29" value="" style="endArrow=classic;html=1;rounded=0;exitX=0.5;exitY=1;exitDx=0;exitDy=0;exitPerimeter=0;entryX=0.5;entryY=0;entryDx=0;entryDy=0;entryPerimeter=0;" edge="1" source="5W4gGsyxZHEPRXtkc3L3-23" target="5W4gGsyxZHEPRXtkc3L3-24" parent="1">
          <mxGeometry width="50" height="50" relative="1" as="geometry">
            <mxPoint x="549" y="760" as="sourcePoint" />
            <mxPoint x="599" y="710" as="targetPoint" />
          </mxGeometry>
        </mxCell>
        <mxCell id="5W4gGsyxZHEPRXtkc3L3-30" value="" style="endArrow=classic;html=1;rounded=0;exitX=0.5;exitY=1;exitDx=0;exitDy=0;exitPerimeter=0;entryX=0.5;entryY=0;entryDx=0;entryDy=0;entryPerimeter=0;" edge="1" source="5W4gGsyxZHEPRXtkc3L3-23" target="5W4gGsyxZHEPRXtkc3L3-25" parent="1">
          <mxGeometry width="50" height="50" relative="1" as="geometry">
            <mxPoint x="599" y="700" as="sourcePoint" />
            <mxPoint x="539" y="780" as="targetPoint" />
          </mxGeometry>
        </mxCell>
        <mxCell id="5W4gGsyxZHEPRXtkc3L3-31" value="replica" style="text;html=1;align=center;verticalAlign=middle;whiteSpace=wrap;rounded=0;" vertex="1" parent="1">
          <mxGeometry x="164" y="590" width="60" height="30" as="geometry" />
        </mxCell>
        <mxCell id="5W4gGsyxZHEPRXtkc3L3-32" value="replica" style="text;html=1;align=center;verticalAlign=middle;whiteSpace=wrap;rounded=0;" vertex="1" parent="1">
          <mxGeometry x="454" y="590" width="60" height="30" as="geometry" />
        </mxCell>
      </root>
    </mxGraphModel>
  </diagram>
  <diagram id="8TLjCrIVXtpwkMR7t7WC" name="shard">
    <mxGraphModel dx="3475" dy="1491" grid="1" gridSize="10" guides="1" tooltips="1" connect="1" arrows="1" fold="1" page="1" pageScale="1" pageWidth="827" pageHeight="1169" math="0" shadow="0">
      <root>
        <mxCell id="0" />
        <mxCell id="1" parent="0" />
        <mxCell id="EYD9oFIZJS72PcYSA23d-1" value="MongoDB" style="shape=cylinder3;whiteSpace=wrap;html=1;boundedLbl=1;backgroundOutline=1;size=15;" vertex="1" parent="1">
          <mxGeometry x="254" y="650" width="60" height="80" as="geometry" />
        </mxCell>
        <mxCell id="EYD9oFIZJS72PcYSA23d-2" value="pymongo-api" style="rounded=1;whiteSpace=wrap;html=1;" vertex="1" parent="1">
          <mxGeometry x="274" y="410" width="120" height="40" as="geometry" />
        </mxCell>
        <mxCell id="maN79ZLpG8vim16vfExq-2" value="configSrv" style="rounded=1;whiteSpace=wrap;html=1;" vertex="1" parent="1">
          <mxGeometry x="454" y="530" width="120" height="40" as="geometry" />
        </mxCell>
        <mxCell id="maN79ZLpG8vim16vfExq-6" value="router" style="rounded=1;whiteSpace=wrap;html=1;" vertex="1" parent="1">
          <mxGeometry x="274" y="530" width="120" height="40" as="geometry" />
        </mxCell>
        <mxCell id="maN79ZLpG8vim16vfExq-7" value="" style="endArrow=classic;html=1;rounded=0;exitX=0.5;exitY=1;exitDx=0;exitDy=0;entryX=0.5;entryY=0;entryDx=0;entryDy=0;" edge="1" parent="1" source="EYD9oFIZJS72PcYSA23d-2" target="maN79ZLpG8vim16vfExq-6">
          <mxGeometry width="50" height="50" relative="1" as="geometry">
            <mxPoint x="414" y="465" as="sourcePoint" />
            <mxPoint x="284" y="555" as="targetPoint" />
          </mxGeometry>
        </mxCell>
        <mxCell id="maN79ZLpG8vim16vfExq-11" value="" style="endArrow=classic;html=1;rounded=0;exitX=0.5;exitY=1;exitDx=0;exitDy=0;entryX=0.5;entryY=0;entryDx=0;entryDy=0;entryPerimeter=0;" edge="1" parent="1" source="maN79ZLpG8vim16vfExq-6" target="EYD9oFIZJS72PcYSA23d-1">
          <mxGeometry width="50" height="50" relative="1" as="geometry">
            <mxPoint x="254" y="570" as="sourcePoint" />
            <mxPoint x="254" y="650" as="targetPoint" />
          </mxGeometry>
        </mxCell>
        <mxCell id="maN79ZLpG8vim16vfExq-12" value="" style="endArrow=classic;html=1;rounded=0;exitX=0.5;exitY=1;exitDx=0;exitDy=0;entryX=0.5;entryY=0;entryDx=0;entryDy=0;entryPerimeter=0;" edge="1" parent="1" source="maN79ZLpG8vim16vfExq-6" target="GElyWNz-qBebTCCTz20m-1">
          <mxGeometry width="50" height="50" relative="1" as="geometry">
            <mxPoint x="453.5" y="590" as="sourcePoint" />
            <mxPoint x="414" y="650" as="targetPoint" />
          </mxGeometry>
        </mxCell>
        <mxCell id="maN79ZLpG8vim16vfExq-13" value="" style="endArrow=classic;html=1;rounded=0;exitX=1;exitY=0.5;exitDx=0;exitDy=0;entryX=0;entryY=0.5;entryDx=0;entryDy=0;" edge="1" parent="1" source="maN79ZLpG8vim16vfExq-6" target="maN79ZLpG8vim16vfExq-2">
          <mxGeometry width="50" height="50" relative="1" as="geometry">
            <mxPoint x="544" y="610" as="sourcePoint" />
            <mxPoint x="594" y="560" as="targetPoint" />
          </mxGeometry>
        </mxCell>
        <mxCell id="maN79ZLpG8vim16vfExq-14" value="" style="endArrow=classic;html=1;rounded=0;exitX=1;exitY=0.5;exitDx=0;exitDy=0;entryX=0.5;entryY=1;entryDx=0;entryDy=0;edgeStyle=orthogonalEdgeStyle;" edge="1" parent="1" source="GElyWNz-qBebTCCTz20m-3" target="maN79ZLpG8vim16vfExq-2">
          <mxGeometry width="50" height="50" relative="1" as="geometry">
            <mxPoint x="474" y="670" as="sourcePoint" />
            <mxPoint x="684" y="640" as="targetPoint" />
          </mxGeometry>
        </mxCell>
        <mxCell id="maN79ZLpG8vim16vfExq-15" value="" style="endArrow=none;dashed=1;html=1;dashPattern=1 3;strokeWidth=2;rounded=0;exitX=1;exitY=0.5;exitDx=0;exitDy=0;entryX=0;entryY=0.5;entryDx=0;entryDy=0;" edge="1" parent="1" source="GElyWNz-qBebTCCTz20m-2" target="GElyWNz-qBebTCCTz20m-3">
          <mxGeometry width="50" height="50" relative="1" as="geometry">
            <mxPoint x="334" y="810" as="sourcePoint" />
            <mxPoint x="384" y="810" as="targetPoint" />
          </mxGeometry>
        </mxCell>
        <mxCell id="GElyWNz-qBebTCCTz20m-1" value="MongoDB" style="shape=cylinder3;whiteSpace=wrap;html=1;boundedLbl=1;backgroundOutline=1;size=15;" vertex="1" parent="1">
          <mxGeometry x="354" y="650" width="60" height="80" as="geometry" />
        </mxCell>
        <mxCell id="GElyWNz-qBebTCCTz20m-2" value="shard1-1" style="text;html=1;align=center;verticalAlign=middle;whiteSpace=wrap;rounded=0;" vertex="1" parent="1">
          <mxGeometry x="254" y="730" width="60" height="30" as="geometry" />
        </mxCell>
        <mxCell id="GElyWNz-qBebTCCTz20m-3" value="shard1-2" style="text;html=1;align=center;verticalAlign=middle;whiteSpace=wrap;rounded=0;" vertex="1" parent="1">
          <mxGeometry x="354" y="730" width="60" height="30" as="geometry" />
        </mxCell>
      </root>
    </mxGraphModel>
  </diagram>
  <diagram name="initial" id="-H_mtQnk-PTXWXPvYvuk">
    <mxGraphModel dx="3194" dy="1267" grid="1" gridSize="10" guides="1" tooltips="1" connect="1" arrows="1" fold="1" page="1" pageScale="1" pageWidth="1169" pageHeight="827" math="0" shadow="0">
      <root>
        <mxCell id="0" />
        <mxCell id="1" parent="0" />
        <mxCell id="zA23MoTUsTF4_91t8viU-2" value="MongoDB" style="shape=cylinder3;whiteSpace=wrap;html=1;boundedLbl=1;backgroundOutline=1;size=15;" parent="1" vertex="1">
          <mxGeometry x="560" y="280" width="60" height="80" as="geometry" />
        </mxCell>
        <mxCell id="zA23MoTUsTF4_91t8viU-3" value="pymongo-api" style="rounded=1;whiteSpace=wrap;html=1;" parent="1" vertex="1">
          <mxGeometry x="360" y="290" width="120" height="60" as="geometry" />
        </mxCell>
        <mxCell id="zA23MoTUsTF4_91t8viU-4" style="edgeStyle=orthogonalEdgeStyle;rounded=0;orthogonalLoop=1;jettySize=auto;html=1;exitX=1;exitY=0.5;exitDx=0;exitDy=0;entryX=0;entryY=0.5;entryDx=0;entryDy=0;entryPerimeter=0;" parent="1" source="zA23MoTUsTF4_91t8viU-3" target="zA23MoTUsTF4_91t8viU-2" edge="1">
          <mxGeometry relative="1" as="geometry" />
        </mxCell>
      </root>
    </mxGraphModel>
  </diagram>
</mxfile>
